<svg width="56" height="56" viewBox="0 0 56 56" fill="none" xmlns="http://www.w3.org/2000/svg">
<g clip-path="url(#clip0_37_12819)">
<path d="M9.88286 42.8235C13.0666 42.8235 15.6476 40.2426 15.6476 37.0589C15.6476 33.8751 13.0666 31.2942 9.88286 31.2942C6.69911 31.2942 4.11816 33.8751 4.11816 37.0589C4.11816 40.2426 6.69911 42.8235 9.88286 42.8235Z" fill="url(#paint0_linear_37_12819)"/>
<path d="M46.1182 42.8235C49.302 42.8235 51.8829 40.2426 51.8829 37.0589C51.8829 33.8751 49.302 31.2942 46.1182 31.2942C42.9345 31.2942 40.3535 33.8751 40.3535 37.0589C40.3535 40.2426 42.9345 42.8235 46.1182 42.8235Z" fill="url(#paint1_linear_37_12819)"/>
<path d="M52.4786 43.5021C50.8415 45.1184 48.5937 46.1177 46.1177 46.1177C43.6416 46.1177 41.3939 45.1184 39.7567 43.5021C39.2756 43.9073 38.834 44.3582 38.4376 44.847L29.647 37.1362V29.6471H32.9411V23.0589H23.0588V29.6471H26.3529V37.1362L17.5623 44.847C17.1661 44.3582 16.7244 43.9074 16.2433 43.5021C14.6061 45.1184 12.3584 46.1177 9.88233 46.1177C7.40626 46.1177 5.15858 45.1184 3.5214 43.5021C1.36925 45.315 0 48.0304 0 51.0588V56H19.7647V51.0588C19.7647 49.9123 19.5681 48.8107 19.2074 47.7859L27.9999 40.0733L36.7926 47.7858C36.4319 48.8107 36.2352 49.9121 36.2352 51.0588V56H55.9999V51.0588C56.0001 48.0304 54.6309 45.315 52.4786 43.5021Z" fill="url(#paint2_linear_37_12819)"/>
<path d="M21.8655 17.6296C22.5114 18.1415 22.9316 18.9197 23.0342 19.7648H32.9662C33.0677 18.9143 33.4891 18.1448 34.1583 17.6114C36.5511 15.7032 37.9085 12.8549 37.8824 9.79646C37.8372 4.48669 33.5479 0.127478 28.2371 0.00285125C22.6871 -0.128913 18.1182 4.32297 18.1182 9.88244C18.1181 12.9183 19.4839 15.7421 21.8655 17.6296Z" fill="url(#paint3_linear_37_12819)"/>
<path d="M40.2607 3.55786L45.2016 0.261988L47.0298 3.00269L42.089 6.29856L40.2607 3.55786Z" fill="url(#paint4_linear_37_12819)"/>
<path d="M8.97168 3.01822L10.7999 0.277518L15.7408 3.57339L13.9125 6.31409L8.97168 3.01822Z" fill="url(#paint5_linear_37_12819)"/>
<path d="M40.2744 14.5527L42.1026 11.812L47.0435 15.1078L45.2153 17.8485L40.2744 14.5527Z" fill="url(#paint6_linear_37_12819)"/>
<path d="M8.97266 15.0964L13.9135 11.8005L15.7417 14.5412L10.8009 17.8371L8.97266 15.0964Z" fill="url(#paint7_linear_37_12819)"/>
</g>
<defs>
<linearGradient id="paint0_linear_37_12819" x1="9.88286" y1="31.2942" x2="9.88286" y2="42.8235" gradientUnits="userSpaceOnUse">
<stop stop-color="#262E6B"/>
<stop offset="1" stop-color="#1A1F46"/>
</linearGradient>
<linearGradient id="paint1_linear_37_12819" x1="46.1182" y1="31.2942" x2="46.1182" y2="42.8235" gradientUnits="userSpaceOnUse">
<stop stop-color="#262E6B"/>
<stop offset="1" stop-color="#1A1F46"/>
</linearGradient>
<linearGradient id="paint2_linear_37_12819" x1="27.9999" y1="23.0589" x2="27.9999" y2="56" gradientUnits="userSpaceOnUse">
<stop stop-color="#262E6B"/>
<stop offset="1" stop-color="#1A1F46"/>
</linearGradient>
<linearGradient id="paint3_linear_37_12819" x1="28.0005" y1="0" x2="28.0005" y2="19.7648" gradientUnits="userSpaceOnUse">
<stop stop-color="#262E6B"/>
<stop offset="1" stop-color="#1A1F46"/>
</linearGradient>
<linearGradient id="paint4_linear_37_12819" x1="42.7312" y1="1.90992" x2="44.5594" y2="4.65062" gradientUnits="userSpaceOnUse">
<stop stop-color="#262E6B"/>
<stop offset="1" stop-color="#1A1F46"/>
</linearGradient>
<linearGradient id="paint5_linear_37_12819" x1="9.8858" y1="1.64787" x2="14.8266" y2="4.94374" gradientUnits="userSpaceOnUse">
<stop stop-color="#262E6B"/>
<stop offset="1" stop-color="#1A1F46"/>
</linearGradient>
<linearGradient id="paint6_linear_37_12819" x1="41.1885" y1="13.1823" x2="46.1294" y2="16.4782" gradientUnits="userSpaceOnUse">
<stop stop-color="#262E6B"/>
<stop offset="1" stop-color="#1A1F46"/>
</linearGradient>
<linearGradient id="paint7_linear_37_12819" x1="11.4431" y1="13.4484" x2="13.2713" y2="16.1891" gradientUnits="userSpaceOnUse">
<stop stop-color="#262E6B"/>
<stop offset="1" stop-color="#1A1F46"/>
</linearGradient>
<clipPath id="clip0_37_12819">
<rect width="56" height="56" fill="white"/>
</clipPath>
</defs>
</svg>
