<svg width="56" height="56" viewBox="0 0 56 56" fill="none" xmlns="http://www.w3.org/2000/svg">
<g clip-path="url(#clip0_37_12800)">
<path d="M54.8565 -2.48896e-06C43.9132 -0.186669 31.4532 5.53 23.5665 14.3967C16.0298 14.5367 8.67985 17.6167 3.26651 23.03C2.96318 23.3333 2.84651 23.8 2.98651 24.22C3.12651 24.64 3.47651 24.9433 3.91985 25.0133L12.9265 26.2967L11.8065 27.5567C11.3865 28 11.4098 28.7233 11.8532 29.1433L26.8565 44.1467C27.0665 44.38 27.3698 44.4967 27.6732 44.4967C27.9532 44.4967 28.2332 44.38 28.4432 44.1933L29.7032 43.0733L30.9865 52.08C31.0565 52.5233 31.3832 52.8267 31.8032 52.9667C31.9198 53.0133 32.0365 53.0367 32.1532 53.0367C32.4798 53.0367 32.8065 52.8733 33.0398 52.64C34.2065 51.4733 35.2798 50.19 36.2365 48.8367C33.1098 46.1533 31.4065 42.3033 31.4998 38.15C31.6632 30.7067 37.8465 24.5933 45.2898 24.5H45.5932C46.5265 24.5 47.4365 24.5933 48.3232 24.7567C53.2698 17.5933 56.1632 8.98333 55.9998 1.14333C55.9765 0.513331 55.4865 0.0233308 54.8565 -2.48896e-06ZM44.0998 20.16C42.9565 21.28 41.4632 21.8633 39.9698 21.8633C38.4765 21.8633 36.9832 21.28 35.8398 20.16C33.5765 17.8733 33.5765 14.1633 35.8398 11.9C38.1265 9.61333 41.8365 9.61333 44.0998 11.9C46.3632 14.1633 46.3632 17.8733 44.0998 20.16Z" fill="url(#paint0_linear_37_12800)"/>
<path d="M6.35613 39.445C3.85947 41.9417 0.431801 53.221 0.0491339 54.4973C-0.0745327 54.908 0.0398006 55.3537 0.340801 55.657C0.564801 55.881 0.861134 56 1.1668 56C1.2788 56 1.3908 55.9837 1.5028 55.951C2.77913 55.5683 14.0585 52.1407 16.5551 49.644C19.3668 46.8323 19.3668 42.2567 16.5551 39.445C13.7411 36.6333 9.1678 36.6357 6.35613 39.445Z" fill="url(#paint1_linear_37_12800)"/>
<path d="M50.2602 51.73V53.41C50.2602 54.8333 49.0936 56 47.6469 56H43.3536C42.0936 56 40.7402 55.0667 40.7402 52.99V51.73H50.2602Z" fill="url(#paint2_linear_37_12800)"/>
<path d="M56.0004 38.43C56.0004 41.58 54.6004 44.52 52.1504 46.5033C51.1704 47.2967 50.5404 48.3233 50.3304 49.3967H40.6938C40.5304 48.3467 39.9471 47.3667 38.9904 46.62C36.4004 44.59 34.9304 41.5333 35.0004 38.22C35.1171 32.6667 39.7604 28.07 45.3371 28C48.1604 27.93 50.8671 29.0267 52.8971 31.0333C54.9038 32.9933 56.0004 35.63 56.0004 38.43Z" fill="url(#paint3_linear_37_12800)"/>
</g>
<defs>
<linearGradient id="paint0_linear_37_12800" x1="29.4671" y1="-0.00444031" x2="29.4671" y2="53.0367" gradientUnits="userSpaceOnUse">
<stop stop-color="#262E6B"/>
<stop offset="1" stop-color="#1A1F46"/>
</linearGradient>
<linearGradient id="paint1_linear_37_12800" x1="9.33194" y1="37.3371" x2="9.33194" y2="56" gradientUnits="userSpaceOnUse">
<stop stop-color="#262E6B"/>
<stop offset="1" stop-color="#1A1F46"/>
</linearGradient>
<linearGradient id="paint2_linear_37_12800" x1="45.5002" y1="51.73" x2="45.5002" y2="56" gradientUnits="userSpaceOnUse">
<stop stop-color="#262E6B"/>
<stop offset="1" stop-color="#1A1F46"/>
</linearGradient>
<linearGradient id="paint3_linear_37_12800" x1="45.4992" y1="27.9968" x2="45.4992" y2="49.3967" gradientUnits="userSpaceOnUse">
<stop stop-color="#262E6B"/>
<stop offset="1" stop-color="#1A1F46"/>
</linearGradient>
<clipPath id="clip0_37_12800">
<rect width="56" height="56" fill="white"/>
</clipPath>
</defs>
</svg>
