<svg width="56" height="56" viewBox="0 0 56 56" fill="none" xmlns="http://www.w3.org/2000/svg">
<g clip-path="url(#clip0_37_12774)">
<path d="M28 11.3753C18.7853 11.3753 11.2988 18.8742 11.2988 28.0765C11.2988 37.2783 18.7977 44.7771 28 44.7771C37.2018 44.7771 44.7006 37.2783 44.7006 28.0765C44.7006 18.8742 37.2147 11.3753 28 11.3753ZM36.3756 24.0728L26.2966 33.5795C26.1104 33.7622 25.8587 33.863 25.5975 33.8595C25.3244 33.862 25.0623 33.7517 24.8731 33.5541L19.5985 28.14C19.2123 27.7389 19.2207 27.1009 19.6184 26.7106C20.0156 26.3204 20.653 26.3229 21.0477 26.7161L25.6233 31.4188L34.9775 22.5983C35.3847 22.212 36.0276 22.2294 36.4139 22.6365C36.8001 23.0436 36.7828 23.6866 36.3756 24.0728Z" fill="url(#paint0_linear_37_12774)"/>
<path d="M51.9837 34.1643L56.0002 28.0765L51.9837 21.9881C51.866 21.8074 51.8079 21.5939 51.8183 21.3779L52.2249 14.0826L45.7305 10.7909C45.5383 10.6941 45.3824 10.5382 45.2856 10.3461L42.0064 3.85111L34.711 4.25773C34.4951 4.26815 34.2816 4.21056 34.1009 4.0924L28.0001 0.076355L21.9117 4.0924C21.731 4.21056 21.5175 4.26815 21.3021 4.25773L14.0063 3.85111L10.7146 10.3461C10.6178 10.5382 10.4619 10.6941 10.2697 10.7909L3.77475 14.0697L4.18137 21.3655C4.1918 21.581 4.13421 21.7945 4.01654 21.9757L0 28.0765L4.01654 34.1643C4.13421 34.3455 4.1918 34.5585 4.18137 34.7745L3.77475 42.0698L10.2697 45.3491C10.4619 45.4459 10.6178 45.6018 10.7146 45.7939L13.9938 52.2889L21.2891 51.8818H21.3398C21.5379 51.8843 21.732 51.9413 21.8993 52.0471L27.9872 56.0636L34.0755 52.0471C34.2563 51.9294 34.4698 51.8718 34.6852 51.8818L41.981 52.2889L45.2603 45.7939C45.3571 45.6018 45.513 45.4459 45.7051 45.3491L52.1996 42.0698L51.793 34.7745C51.8039 34.558 51.8695 34.348 51.9837 34.1643ZM28.0001 46.8107C17.6668 46.8107 9.26535 38.4092 9.26535 28.0765C9.26535 17.7432 17.6668 9.3417 28.0001 9.3417C38.3334 9.3417 46.7343 17.7432 46.7343 28.0765C46.7343 38.4092 38.3334 46.8107 28.0001 46.8107Z" fill="url(#paint1_linear_37_12774)"/>
</g>
<defs>
<linearGradient id="paint0_linear_37_12774" x1="27.9997" y1="11.3753" x2="27.9997" y2="44.7771" gradientUnits="userSpaceOnUse">
<stop stop-color="#262E6B"/>
<stop offset="1" stop-color="#1A1F46"/>
</linearGradient>
<linearGradient id="paint1_linear_37_12774" x1="28.0001" y1="0.076355" x2="28.0001" y2="56.0636" gradientUnits="userSpaceOnUse">
<stop stop-color="#262E6B"/>
<stop offset="1" stop-color="#1A1F46"/>
</linearGradient>
<clipPath id="clip0_37_12774">
<rect width="56" height="56" fill="white"/>
</clipPath>
</defs>
</svg>
