<svg width="56" height="56" viewBox="0 0 56 56" fill="none" xmlns="http://www.w3.org/2000/svg">
<path d="M7.67775 31.9053H5.24617C4.89484 31.9237 4.55082 32.0127 4.23458 32.1668C3.91833 32.321 3.63632 32.5372 3.40533 32.8025C3.17435 33.0679 2.9991 33.377 2.89002 33.7115C2.78093 34.0459 2.74025 34.3989 2.77038 34.7495V46.5389C2.74025 46.8895 2.78093 47.2425 2.89002 47.5769C2.9991 47.9114 3.17435 48.2205 3.40533 48.4859C3.63632 48.7513 3.91833 48.9674 4.23458 49.1216C4.55082 49.2757 4.89484 49.3647 5.24617 49.3832H7.67775C8.0278 49.3628 8.37022 49.2724 8.68475 49.1175C8.99929 48.9625 9.27956 48.746 9.509 48.4808C9.73844 48.2157 9.91239 47.9072 10.0206 47.5737C10.1287 47.2401 10.1689 46.8883 10.1388 46.5389V34.7495C10.1689 34.4001 10.1287 34.0483 10.0206 33.7147C9.91239 33.3812 9.73844 33.0727 9.509 32.8076C9.27956 32.5424 8.99929 32.3259 8.68475 32.171C8.37022 32.016 8.0278 31.9256 7.67775 31.9053Z" fill="url(#paint0_linear_37_12789)"/>
<path d="M51.9178 35.9284C51.2366 35.2363 50.3466 34.7876 49.385 34.6518C48.4235 34.5159 47.444 34.7004 46.5978 35.1768L35.6336 41.2631H27.1746C26.7838 41.2631 26.4089 41.1079 26.1326 40.8315C25.8562 40.5551 25.7009 40.1803 25.7009 39.7895C25.7009 39.3986 25.8562 39.0238 26.1326 38.7474C26.4089 38.471 26.7838 38.3158 27.1746 38.3158H33.8062C34.7833 38.3158 35.7204 37.9276 36.4113 37.2367C37.1022 36.5458 37.4904 35.6087 37.4904 34.6316C37.4904 33.6545 37.1022 32.7174 36.4113 32.0264C35.7204 31.3355 34.7833 30.9474 33.8062 30.9474H16.8588C16.5699 30.9496 16.2881 31.0367 16.0483 31.1979L12.3936 33.6295V34.0716V46.981V47.4231L16.0483 49.8547C16.2881 50.0159 16.5699 50.103 16.8588 50.1053H37.4904C37.7373 50.1065 37.9805 50.0457 38.1978 49.9284L50.9009 43.0021C51.5166 42.6761 52.0466 42.2093 52.4476 41.6396C52.8486 41.0699 53.1093 40.4135 53.2085 39.7239C53.3076 39.0343 53.2423 38.331 53.018 37.6714C52.7937 37.0119 52.4167 36.4146 51.9178 35.9284Z" fill="url(#paint1_linear_37_12789)"/>
<path d="M48.3213 24.0947H50.7529C51.1043 24.0763 51.4483 23.9873 51.7645 23.8332C52.0808 23.679 52.3628 23.4628 52.5938 23.1975C52.8248 22.9321 53 22.623 53.1091 22.2885C53.2182 21.954 53.2588 21.601 53.2287 21.2505V9.46105C53.2588 9.11053 53.2182 8.75753 53.1091 8.42305C53 8.08858 52.8248 7.77946 52.5938 7.5141C52.3628 7.24874 52.0808 7.03255 51.7645 6.87841C51.4483 6.72426 51.1043 6.63531 50.7529 6.61684H48.3213C47.9713 6.63721 47.6289 6.72755 47.3143 6.88254C46.9998 7.03752 46.7195 7.25398 46.4901 7.51914C46.2607 7.7843 46.0867 8.09277 45.9785 8.42631C45.8704 8.75986 45.8302 9.1117 45.8603 9.46105V21.2505C45.8302 21.5999 45.8704 21.9517 45.9785 22.2853C46.0867 22.6188 46.2607 22.9273 46.4901 23.1924C46.7195 23.4576 46.9998 23.6741 47.3143 23.829C47.6289 23.984 47.9713 24.0744 48.3213 24.0947Z" fill="url(#paint2_linear_37_12789)"/>
<path d="M4.08183 20.0863C4.76472 20.7761 5.65564 21.222 6.61711 21.3552C7.57859 21.4883 8.55716 21.3014 9.40183 20.8232L20.366 14.7368H28.825C29.2158 14.7368 29.5907 14.8921 29.867 15.1685C30.1434 15.4448 30.2987 15.8197 30.2987 16.2105C30.2987 16.6014 30.1434 16.9762 29.867 17.2526C29.5907 17.5289 29.2158 17.6842 28.825 17.6842H22.1934C21.2163 17.6842 20.2792 18.0724 19.5883 18.7633C18.8974 19.4542 18.5092 20.3913 18.5092 21.3684C18.5092 22.3455 18.8974 23.2826 19.5883 23.9735C20.2792 24.6645 21.2163 25.0526 22.1934 25.0526H39.1408C39.4297 25.0504 39.7115 24.9633 39.9513 24.8021L43.606 22.3705C43.606 22.2232 43.606 22.0758 43.606 21.9284V9.01894C43.606 8.87157 43.606 8.72421 43.606 8.57684L39.9513 6.14526C39.7115 5.98411 39.4297 5.89699 39.1408 5.89473H18.5092C18.2623 5.8935 18.0191 5.95431 17.8018 6.07157L5.09867 12.9979C4.48028 13.3233 3.94782 13.7906 3.54497 14.3616C3.14212 14.9326 2.88035 15.5909 2.78113 16.2826C2.6819 16.9743 2.74805 17.6796 2.97415 18.3408C3.20024 19.002 3.57985 19.6002 4.08183 20.0863Z" fill="url(#paint3_linear_37_12789)"/>
<defs>
<linearGradient id="paint0_linear_37_12789" x1="6.45463" y1="31.9053" x2="6.45463" y2="49.3832" gradientUnits="userSpaceOnUse">
<stop stop-color="#262E6B"/>
<stop offset="1" stop-color="#1A1F46"/>
</linearGradient>
<linearGradient id="paint1_linear_37_12789" x1="32.8235" y1="30.9474" x2="32.8235" y2="50.1053" gradientUnits="userSpaceOnUse">
<stop stop-color="#262E6B"/>
<stop offset="1" stop-color="#1A1F46"/>
</linearGradient>
<linearGradient id="paint2_linear_37_12789" x1="49.5445" y1="6.61684" x2="49.5445" y2="24.0947" gradientUnits="userSpaceOnUse">
<stop stop-color="#262E6B"/>
<stop offset="1" stop-color="#1A1F46"/>
</linearGradient>
<linearGradient id="paint3_linear_37_12789" x1="23.1712" y1="5.89471" x2="23.1712" y2="25.0526" gradientUnits="userSpaceOnUse">
<stop stop-color="#262E6B"/>
<stop offset="1" stop-color="#1A1F46"/>
</linearGradient>
</defs>
</svg>
