<svg width="56" height="56" viewBox="0 0 56 56" fill="none" xmlns="http://www.w3.org/2000/svg">
<g clip-path="url(#clip0_37_12807)">
<path fill-rule="evenodd" clip-rule="evenodd" d="M36.526 27.3865H51.9328V56H36.526V27.3865ZM2.06831 34.3671L24.5412 21.1365L21.177 20.2139C20.8305 20.1119 20.5379 19.8779 20.3622 19.5623C20.1865 19.2467 20.1417 18.8748 20.2375 18.5265C20.3333 18.1782 20.562 17.8815 20.8743 17.7001C21.1867 17.5187 21.5578 17.4673 21.9077 17.5568L28.3706 19.3308C28.7226 19.4271 29.0219 19.6592 29.2027 19.9761C29.3835 20.293 29.4311 20.6688 29.3348 21.0208L27.563 27.4864C27.4833 27.7775 27.3103 28.0344 27.0706 28.2176C26.8308 28.4009 26.5375 28.5004 26.2357 28.5008C26.1122 28.5011 25.9892 28.4842 25.8703 28.4508C25.5183 28.3538 25.2191 28.1211 25.0383 27.8039C24.8575 27.4867 24.8099 27.1107 24.9058 26.7584L25.7704 23.6097L3.46602 36.7404C3.25519 36.8666 3.01393 36.9329 2.7682 36.9322C2.46593 36.9322 2.17206 36.8328 1.93183 36.6493C1.69161 36.4659 1.51837 36.2085 1.4388 35.9169C1.35922 35.6253 1.37773 35.3156 1.49146 35.0356C1.60519 34.7555 1.80795 34.5206 2.06831 34.3671ZM55.7334 8.35767C55.6485 8.09773 55.4881 7.86895 55.2727 7.70047C55.0573 7.532 54.7966 7.43147 54.5239 7.41169L47.9848 6.92814L45.5042 0.856845C45.4009 0.603526 45.2245 0.386725 44.9974 0.234109C44.7704 0.0814935 44.503 -1.52588e-05 44.2295 -1.52588e-05C43.9559 -1.52588e-05 43.6885 0.0814935 43.4615 0.234109C43.2345 0.386725 43.0581 0.603526 42.9548 0.856845L40.4737 6.92814L33.9346 7.41169C33.6618 7.43138 33.4011 7.53194 33.1857 7.70053C32.9703 7.86912 32.81 8.09808 32.7254 8.35818C32.6408 8.61828 32.6356 8.8977 32.7105 9.16075C32.7855 9.4238 32.9371 9.65855 33.1461 9.835L38.153 14.0718L36.5918 20.44C36.5419 20.6428 36.5388 20.8544 36.5827 21.0586C36.6266 21.2628 36.7164 21.4544 36.8453 21.6188C36.9742 21.7832 37.1388 21.9161 37.3266 22.0075C37.5145 22.0989 37.7206 22.1463 37.9295 22.1463C38.1861 22.1465 38.4375 22.0745 38.6549 21.9384L44.2294 18.4844L49.804 21.9379C50.0365 22.0823 50.3067 22.1542 50.5802 22.1443C50.8537 22.1344 51.1181 22.0432 51.3395 21.8824C51.5609 21.7216 51.7294 21.4984 51.8234 21.2414C51.9174 20.9844 51.9326 20.7052 51.8672 20.4395L50.306 14.0712L55.3128 9.835C55.5211 9.65805 55.6722 9.42332 55.747 9.1605C55.8219 8.89768 55.8171 8.61856 55.7334 8.35844V8.35767ZM0.201172 42.7508H15.6104V56H0.201172V42.7508ZM18.3645 35.0688V56H33.7716V35.0688H18.3645Z" fill="url(#paint0_linear_37_12807)"/>
</g>
<defs>
<linearGradient id="paint0_linear_37_12807" x1="28.0005" y1="-1.52588e-05" x2="28.0005" y2="56" gradientUnits="userSpaceOnUse">
<stop stop-color="#262E6B"/>
<stop offset="1" stop-color="#1A1F46"/>
</linearGradient>
<clipPath id="clip0_37_12807">
<rect width="56" height="56" fill="white"/>
</clipPath>
</defs>
</svg>
